<mxfile host="Electron" agent="Mozilla/5.0 (Windows NT 10.0; Win64; x64) AppleWebKit/537.36 (KHTML, like Gecko) draw.io/26.0.4 Chrome/128.0.6613.186 Electron/32.2.5 Safari/537.36" version="26.0.4">
  <diagram name="Seite-1" id="1HAbIEPg9UEzFSRkyJPR">
    <mxGraphModel dx="1130" dy="775" grid="1" gridSize="10" guides="1" tooltips="1" connect="1" arrows="1" fold="1" page="1" pageScale="1" pageWidth="827" pageHeight="1169" math="0" shadow="0">
      <root>
        <mxCell id="0" />
        <mxCell id="1" parent="0" />
        <mxCell id="MAhrAiJhWUc8sytTTzNl-1" value="Predictive Maintenance System" style="shape=umlFrame;whiteSpace=wrap;html=1;pointerEvents=0;recursiveResize=0;container=1;collapsible=0;width=160;" vertex="1" parent="1">
          <mxGeometry x="60" y="60" width="570" height="750" as="geometry" />
        </mxCell>
        <mxCell id="MAhrAiJhWUc8sytTTzNl-5" value="Messdaten" style="strokeWidth=2;html=1;shape=mxgraph.flowchart.document2;whiteSpace=wrap;size=0.25;" vertex="1" parent="MAhrAiJhWUc8sytTTzNl-1">
          <mxGeometry x="145" y="200" width="100" height="60" as="geometry" />
        </mxCell>
        <mxCell id="MAhrAiJhWUc8sytTTzNl-7" value="Snowflake" style="rounded=0;whiteSpace=wrap;html=1;verticalAlign=top;fontStyle=5" vertex="1" parent="MAhrAiJhWUc8sytTTzNl-1">
          <mxGeometry x="145" y="280" width="355" height="290" as="geometry" />
        </mxCell>
        <mxCell id="MAhrAiJhWUc8sytTTzNl-8" value="" style="strokeWidth=2;html=1;shape=mxgraph.flowchart.database;whiteSpace=wrap;" vertex="1" parent="MAhrAiJhWUc8sytTTzNl-1">
          <mxGeometry x="270" y="310" width="85" height="45" as="geometry" />
        </mxCell>
        <mxCell id="MAhrAiJhWUc8sytTTzNl-9" value="Load" style="shape=process;whiteSpace=wrap;html=1;backgroundOutline=1;" vertex="1" parent="MAhrAiJhWUc8sytTTzNl-1">
          <mxGeometry x="165" y="310" width="65" height="45" as="geometry" />
        </mxCell>
        <mxCell id="MAhrAiJhWUc8sytTTzNl-10" value="Vorbereitung d. Daten" style="shape=process;whiteSpace=wrap;html=1;backgroundOutline=1;" vertex="1" parent="MAhrAiJhWUc8sytTTzNl-1">
          <mxGeometry x="232.5" y="377" width="160" height="40" as="geometry" />
        </mxCell>
        <mxCell id="MAhrAiJhWUc8sytTTzNl-11" value="KI: Transformation und Berechnung der Differenz" style="shape=process;whiteSpace=wrap;html=1;backgroundOutline=1;" vertex="1" parent="MAhrAiJhWUc8sytTTzNl-1">
          <mxGeometry x="232.5" y="438" width="160" height="50" as="geometry" />
        </mxCell>
        <mxCell id="MAhrAiJhWUc8sytTTzNl-12" value="Beurteilung d. Abweichungen" style="shape=process;whiteSpace=wrap;html=1;backgroundOutline=1;" vertex="1" parent="MAhrAiJhWUc8sytTTzNl-1">
          <mxGeometry x="232.5" y="510" width="160" height="50" as="geometry" />
        </mxCell>
        <mxCell id="MAhrAiJhWUc8sytTTzNl-16" value="" style="edgeStyle=elbowEdgeStyle;elbow=vertical;endArrow=classic;html=1;curved=0;rounded=0;endSize=8;startSize=8;exitX=1;exitY=0.5;exitDx=0;exitDy=0;entryX=0;entryY=0.5;entryDx=0;entryDy=0;entryPerimeter=0;" edge="1" parent="MAhrAiJhWUc8sytTTzNl-1" source="MAhrAiJhWUc8sytTTzNl-9" target="MAhrAiJhWUc8sytTTzNl-8">
          <mxGeometry width="50" height="50" relative="1" as="geometry">
            <mxPoint x="340" y="160" as="sourcePoint" />
            <mxPoint x="300" y="210" as="targetPoint" />
          </mxGeometry>
        </mxCell>
        <mxCell id="MAhrAiJhWUc8sytTTzNl-19" value="" style="edgeStyle=elbowEdgeStyle;elbow=vertical;endArrow=classic;html=1;curved=0;rounded=0;endSize=8;startSize=8;exitX=0.5;exitY=1;exitDx=0;exitDy=0;entryX=0.5;entryY=0;entryDx=0;entryDy=0;exitPerimeter=0;" edge="1" parent="MAhrAiJhWUc8sytTTzNl-1" source="MAhrAiJhWUc8sytTTzNl-8" target="MAhrAiJhWUc8sytTTzNl-10">
          <mxGeometry width="50" height="50" relative="1" as="geometry">
            <mxPoint x="490" y="180" as="sourcePoint" />
            <mxPoint x="450" y="230" as="targetPoint" />
            <Array as="points">
              <mxPoint x="310" y="366" />
            </Array>
          </mxGeometry>
        </mxCell>
        <mxCell id="MAhrAiJhWUc8sytTTzNl-21" value="" style="edgeStyle=elbowEdgeStyle;elbow=vertical;endArrow=classic;html=1;curved=0;rounded=0;endSize=8;startSize=8;entryX=0.5;entryY=0;entryDx=0;entryDy=0;exitX=0.5;exitY=1;exitDx=0;exitDy=0;" edge="1" parent="MAhrAiJhWUc8sytTTzNl-1" source="MAhrAiJhWUc8sytTTzNl-11" target="MAhrAiJhWUc8sytTTzNl-12">
          <mxGeometry width="50" height="50" relative="1" as="geometry">
            <mxPoint x="313" y="490" as="sourcePoint" />
            <mxPoint x="333" y="390" as="targetPoint" />
            <Array as="points" />
          </mxGeometry>
        </mxCell>
        <mxCell id="MAhrAiJhWUc8sytTTzNl-23" value="" style="edgeStyle=orthogonalEdgeStyle;rounded=0;orthogonalLoop=1;jettySize=auto;html=1;exitX=0.5;exitY=1;exitDx=0;exitDy=0;entryX=0.502;entryY=0.077;entryDx=0;entryDy=0;entryPerimeter=0;" edge="1" parent="MAhrAiJhWUc8sytTTzNl-1" source="MAhrAiJhWUc8sytTTzNl-10" target="MAhrAiJhWUc8sytTTzNl-11">
          <mxGeometry relative="1" as="geometry">
            <mxPoint x="313" y="420" as="sourcePoint" />
            <mxPoint x="312.5" y="435" as="targetPoint" />
            <Array as="points">
              <mxPoint x="313" y="430" />
            </Array>
          </mxGeometry>
        </mxCell>
        <mxCell id="MAhrAiJhWUc8sytTTzNl-14" value="Streamlit (Snowflake)" style="rounded=0;whiteSpace=wrap;html=1;verticalAlign=top;fontStyle=5" vertex="1" parent="MAhrAiJhWUc8sytTTzNl-1">
          <mxGeometry x="202.5" y="600" width="220" height="130" as="geometry" />
        </mxCell>
        <mxCell id="MAhrAiJhWUc8sytTTzNl-13" value="Vorhersagen" style="shadow=0;dashed=0;html=1;strokeColor=none;fillColor=#4495D1;labelPosition=center;verticalLabelPosition=bottom;verticalAlign=top;align=center;outlineConnect=0;shape=mxgraph.veeam.2d.report;" vertex="1" parent="MAhrAiJhWUc8sytTTzNl-1">
          <mxGeometry x="294.1" y="647.1" width="36.8" height="55.8" as="geometry" />
        </mxCell>
        <mxCell id="MAhrAiJhWUc8sytTTzNl-24" style="edgeStyle=orthogonalEdgeStyle;rounded=0;orthogonalLoop=1;jettySize=auto;html=1;exitX=0.5;exitY=1;exitDx=0;exitDy=0;" edge="1" parent="MAhrAiJhWUc8sytTTzNl-1" source="MAhrAiJhWUc8sytTTzNl-12" target="MAhrAiJhWUc8sytTTzNl-13">
          <mxGeometry relative="1" as="geometry">
            <mxPoint x="300" y="620" as="targetPoint" />
          </mxGeometry>
        </mxCell>
        <mxCell id="MAhrAiJhWUc8sytTTzNl-30" value="" style="group" vertex="1" connectable="0" parent="MAhrAiJhWUc8sytTTzNl-1">
          <mxGeometry x="60" y="60" width="220" height="110" as="geometry" />
        </mxCell>
        <mxCell id="MAhrAiJhWUc8sytTTzNl-2" value="Fahrzeug" style="rounded=0;whiteSpace=wrap;html=1;verticalAlign=top;fontStyle=5" vertex="1" parent="MAhrAiJhWUc8sytTTzNl-30">
          <mxGeometry width="220" height="110" as="geometry" />
        </mxCell>
        <mxCell id="MAhrAiJhWUc8sytTTzNl-3" value="Kompressor" style="rounded=0;whiteSpace=wrap;html=1;" vertex="1" parent="MAhrAiJhWUc8sytTTzNl-30">
          <mxGeometry x="10" y="30" width="80" height="60" as="geometry" />
        </mxCell>
        <mxCell id="MAhrAiJhWUc8sytTTzNl-4" value="MessgerÃ¤te" style="rounded=0;whiteSpace=wrap;html=1;" vertex="1" parent="MAhrAiJhWUc8sytTTzNl-30">
          <mxGeometry x="110" y="30" width="80" height="60" as="geometry" />
        </mxCell>
        <mxCell id="MAhrAiJhWUc8sytTTzNl-31" value="" style="edgeStyle=elbowEdgeStyle;elbow=vertical;endArrow=classic;html=1;curved=0;rounded=0;endSize=8;startSize=8;exitX=0.532;exitY=0.845;exitDx=0;exitDy=0;exitPerimeter=0;" edge="1" parent="MAhrAiJhWUc8sytTTzNl-1" source="MAhrAiJhWUc8sytTTzNl-5" target="MAhrAiJhWUc8sytTTzNl-9">
          <mxGeometry width="50" height="50" relative="1" as="geometry">
            <mxPoint x="350" y="70" as="sourcePoint" />
            <mxPoint x="350" y="210" as="targetPoint" />
          </mxGeometry>
        </mxCell>
        <mxCell id="MAhrAiJhWUc8sytTTzNl-15" value="" style="edgeStyle=elbowEdgeStyle;elbow=vertical;endArrow=classic;html=1;curved=0;rounded=0;endSize=8;startSize=8;exitX=0.5;exitY=1;exitDx=0;exitDy=0;entryX=0.5;entryY=0;entryDx=0;entryDy=0;entryPerimeter=0;" edge="1" parent="MAhrAiJhWUc8sytTTzNl-1" source="MAhrAiJhWUc8sytTTzNl-4" target="MAhrAiJhWUc8sytTTzNl-5">
          <mxGeometry width="50" height="50" relative="1" as="geometry">
            <mxPoint x="250" y="380" as="sourcePoint" />
            <mxPoint x="300" y="330" as="targetPoint" />
          </mxGeometry>
        </mxCell>
        <mxCell id="MAhrAiJhWUc8sytTTzNl-34" value="Wartungssystem" style="rounded=0;whiteSpace=wrap;html=1;verticalAlign=top;fontStyle=5" vertex="1" parent="MAhrAiJhWUc8sytTTzNl-1">
          <mxGeometry x="320" y="60" width="220" height="170" as="geometry" />
        </mxCell>
        <mxCell id="MAhrAiJhWUc8sytTTzNl-35" value="Diagnosedaten" style="strokeWidth=2;html=1;shape=mxgraph.flowchart.document2;whiteSpace=wrap;size=0.25;" vertex="1" parent="MAhrAiJhWUc8sytTTzNl-1">
          <mxGeometry x="380" y="90" width="100" height="60" as="geometry" />
        </mxCell>
        <mxCell id="MAhrAiJhWUc8sytTTzNl-36" value="Load" style="shape=process;whiteSpace=wrap;html=1;backgroundOutline=1;" vertex="1" parent="MAhrAiJhWUc8sytTTzNl-1">
          <mxGeometry x="397.5" y="170" width="65" height="45" as="geometry" />
        </mxCell>
        <mxCell id="MAhrAiJhWUc8sytTTzNl-41" value="" style="edgeStyle=orthogonalEdgeStyle;rounded=0;orthogonalLoop=1;jettySize=auto;html=1;exitX=0.5;exitY=1;exitDx=0;exitDy=0;entryX=1;entryY=0.5;entryDx=0;entryDy=0;entryPerimeter=0;" edge="1" parent="MAhrAiJhWUc8sytTTzNl-1" source="MAhrAiJhWUc8sytTTzNl-36" target="MAhrAiJhWUc8sytTTzNl-8">
          <mxGeometry relative="1" as="geometry">
            <mxPoint x="323" y="427" as="sourcePoint" />
            <mxPoint x="323" y="452" as="targetPoint" />
            <Array as="points">
              <mxPoint x="430" y="333" />
            </Array>
          </mxGeometry>
        </mxCell>
        <mxCell id="MAhrAiJhWUc8sytTTzNl-42" value="" style="edgeStyle=orthogonalEdgeStyle;rounded=0;orthogonalLoop=1;jettySize=auto;html=1;exitX=0.471;exitY=0.885;exitDx=0;exitDy=0;entryX=0.5;entryY=0;entryDx=0;entryDy=0;exitPerimeter=0;" edge="1" parent="MAhrAiJhWUc8sytTTzNl-1" source="MAhrAiJhWUc8sytTTzNl-35" target="MAhrAiJhWUc8sytTTzNl-36">
          <mxGeometry relative="1" as="geometry">
            <mxPoint x="510" y="360" as="sourcePoint" />
            <mxPoint x="510" y="385" as="targetPoint" />
            <Array as="points">
              <mxPoint x="427" y="160" />
              <mxPoint x="430" y="160" />
            </Array>
          </mxGeometry>
        </mxCell>
      </root>
    </mxGraphModel>
  </diagram>
</mxfile>
